<svg width="271.000000" height="86.000000" viewBox="0 0 271 86" fill="none" xmlns="http://www.w3.org/2000/svg" xmlns:xlink="http://www.w3.org/1999/xlink">
  <desc>
    Created with Pixso.
  </desc>
  <rect rx="5.000000" width="271.000000" height="86.000000" fill="#D84A1D"/>
  <line y1="88.519958" x2="64.500000" y2="-2.500031" stroke="#FFFFFF" stroke-width="5.000000"/>
  <path d="M215.499 38.8135L217.116 40L232.058 39.9297L233.71 38.5586L234.976 31.0703L233.174 29.0928L214.884 30.3145L213.407 32.5117L215.499 38.8135ZM154.872 48.5342L164.452 49.6504L166.324 48.1738L167.651 35.8604L165.885 33.9531L162.141 34.1289L159.768 29.2686L156.709 30.8242L158.432 34.2783L154.371 34.4541L154.336 33.373L150.952 33.5225L151.629 53.4297L147.059 57.8242L149.476 60.1973L154.512 55.3721L155.048 54.0801L154.872 48.5342ZM117.105 58.5801L131.836 59.6172L132.117 56.2686L126.861 55.873L126.466 50.8018L131.836 50.6172L131.757 47.2334L126.22 47.418L126 44.8604L132.117 44.5352L131.941 41.1514L125.745 41.5117L125.499 38.0576L132.302 37.4424L131.977 34.0586L125.675 34.6387L123.513 29.9541L120.419 31.3955L122.08 34.9639L116.824 35.4297L116.824 34.709L119.733 32.582L117.721 29.8135L109.512 35.8604L111.568 38.5938L113.432 37.2314L113.757 60.2324L117.141 60.1973L117.105 58.5801ZM104.036 52.0586L111.059 52.0938L111.059 48.71L107.244 48.6748L111.419 42.5225L110.162 39.8945L105.908 39.4639L109.978 31.9756L106.954 30.4199L101.733 40.0703L103.034 42.5576L106.989 42.9531L102.639 49.4307L104.036 52.0586ZM190.441 30.71L174.278 57.6748L177.152 59.4062L193.324 32.4766L190.441 30.71ZM145.547 39.6396L147.885 39.8242L148.14 36.4404L145.371 36.2207L145.151 31.4658L141.732 31.6504L141.952 35.9658L138.709 35.7197L138.419 39.1035L142.093 39.3848L142.488 46.9521L138.384 49.5801L140.186 52.4189L142.664 50.8369L142.884 54.9414L139.245 58.4658L141.627 60.8037L145.767 56.8135L146.303 55.5127L145.978 48.71L149.546 46.4072L147.744 43.5244L145.802 44.79L145.547 39.6396ZM218.303 36.6162L217.336 33.5576L231.267 32.6172L230.616 36.5811L218.303 36.6162ZM154.731 45.1152L154.477 37.8379L164.048 37.4775L163.151 46.1172L154.731 45.1152ZM122.361 41.6963L116.895 41.9775L116.859 38.8135L122.115 38.3477L122.361 41.6963ZM212.977 42.5225L211.43 44.5703L213.152 52.8496L216.466 52.1641L215.139 45.7568L234.756 44.3242L233.139 51.8828L236.408 52.6035L238.57 42.8037L236.769 40.7559L212.977 42.5225ZM190.081 42.7334L187.743 45.1855L201.384 58.0352L203.722 55.5479L190.081 42.7334ZM122.836 47.5234L116.965 47.708L116.93 45.3613L122.651 45.0361L122.836 47.5234ZM236.092 58L224.93 51.0479L227.804 48.2793L225.466 45.8359L212.291 58.5801L214.629 60.9883L222.407 53.4648L234.29 60.8828L236.092 58ZM123.478 55.627L117.07 55.1523L117 51.127L123.117 50.9072L123.478 55.627ZM102.744 56.9893L104.256 60.0127L113.08 55.7324L111.604 52.6738L102.744 56.9893Z" fill="#FFFFFF"/>
  <defs/>
</svg>
