<svg width="171.000000" height="58.000000" viewBox="0 0 171 58" fill="none" xmlns="http://www.w3.org/2000/svg" xmlns:xlink="http://www.w3.org/1999/xlink">
  <desc>
    Created with Pixso.
  </desc>
  <path d="M42 43.5L10.5 30.9426L10.5 56.0574L42 43.5Z" fill-rule="evenodd" fill="#D84A1D"/>
  <rect x="10.000000" width="161.000000" height="44.000000" fill="#E46869"/>
  <path d="M147.598 18.3589L139.827 13.0488L141.57 11.0127L139.409 9.15234L130.107 20.0728L132.297 21.8965L138.003 15.2095L146.008 20.6733L147.598 18.3589ZM84.2065 15.2681L83.7597 18.3003L86.5796 18.6885L87.2094 14.0669L85.8325 12.4482L77.8198 12.3311L76.4135 9.29883L73.8574 10.5586L74.6704 12.2725L65.4565 12.0894L64.0503 13.2612L63.2373 17.9121L66.0278 18.3882L66.6284 14.9385L84.2065 15.2681ZM93.1786 11.2471L96.8994 15.4512L99.0307 13.5615L95.31 9.35742L93.1786 11.2471ZM51.3867 19.6479L54.1479 20.373L56.5503 11.3716L55.0781 9.59912L33.8086 10.771L33.9624 13.5908L53.2764 12.5435L51.3867 19.6479ZM110.793 24.6577L110.698 13.2905L116.88 12.6606L116.58 9.87012L101.792 11.313L102.092 14.1328L107.878 13.5615L108.003 24.8994L101.008 25.5L101.279 28.3491L108.032 27.7485L108.091 34.9482L110.911 34.9189L110.823 27.5068L118.11 26.8477L117.839 24.0278L114.836 24.2988L117.956 17.3994L115.378 16.2275L111.628 24.5698L110.793 24.6577ZM122.432 13.4736L129.932 14.792L130.474 12.0015L122.908 10.6465L122.432 13.4736ZM37.229 16.1396L41.9092 19.1719L43.4399 16.7988L38.7598 13.7666L37.229 16.1396ZM43.7402 26.1592L56.9971 26.4595L57.063 23.6396L45.5713 23.3979L50.7275 15.5684L48.3618 14.0376L42.2388 23.3101L33.0029 23.0977L32.9077 25.9175L40.4077 26.1006L35.6982 33.2417L38.042 34.8018L43.7402 26.1592ZM74.729 22.7974L62.4609 27.3896L63.4497 30.063L75.6299 25.5L76.1425 31.4692L71.6089 32.3701L72.1801 35.1021L77.937 34.0181L79.0796 32.5166L78.2373 22.4971L77.7026 21.5376L76.4721 20.6074L80.9106 18.9888L80.5517 16.2568L69.9023 15.3633L69.6606 18.1465L73.8281 18.542L64.5263 21.8672L65.4565 24.5405L73.3227 21.7207L74.729 22.7974ZM122.673 30.0923L123.179 31.6523L128.159 35.2485L129.807 33L125.669 29.9678L129.448 18.6885L128.401 16.8574L123.362 15.7515L122.761 18.542L126.269 19.2891L122.673 30.0923ZM94.497 33.6006L96.5405 35.0068L102.092 32.1577L100.803 29.6675L97.683 31.2568L99.3603 18.9302L98.1884 17.3115L92.3364 16.3228L91.8603 19.0767L96.3574 19.8604L94.497 33.6006ZM101.25 18.4175L103.557 23.8521L106.201 22.7095L103.857 17.2822L101.25 18.4175ZM35.0977 20.937L40.437 22.8633L41.3965 20.1899L36.0278 18.271L35.0977 20.937ZM79.1967 22.8926L78.8965 24.958L85.2612 33.1172L87.5097 31.3521L82.0532 24.3867L85.5322 21.9624L83.9135 19.6187L79.1967 22.8926ZM134.553 33.6592L146.609 35.0435L146.909 32.2529L136.201 30.9932L136.23 30.1216L146.221 24.9873L144.902 22.4678L136.348 26.877L136.56 21.0615L133.769 20.937L133.323 32.187L134.553 33.6592ZM45.1831 29.1621L55.2319 33.8716L56.4331 31.3228L46.4136 26.5474L45.1831 29.1621ZM74.1577 27.1479L64.9511 31.1396L66.0278 33.7178L75.2417 29.792L74.1577 27.1479Z" fill="#FFFFFF"/>
  <defs/>
</svg>
