<svg width="55.000000" height="55.000000" viewBox="0 0 55 55" fill="none" xmlns="http://www.w3.org/2000/svg" xmlns:xlink="http://www.w3.org/1999/xlink">
  <desc>
    Created with Pixso.
  </desc>
  <g clip-path="url(#clip20_131)">
    <path d="M28.6458 4.58337C31.1754 4.58337 33.6043 5.01477 35.8628 5.80811C34.9158 7.47546 34.375 9.40381 34.375 11.4584C34.375 17.7866 39.5051 22.9167 45.8333 22.9167C47.3062 22.9167 48.7142 22.6388 50.0076 22.1326C50.276 23.4983 50.4167 24.9098 50.4167 26.3542C50.4167 38.3779 40.6695 48.125 28.6458 48.125C28.2615 48.125 27.8795 48.1152 27.5 48.0955L27.5 48.125L6.875 48.125L11.8351 40.1887C8.73615 36.4275 6.875 31.6083 6.875 26.3542C6.875 14.3304 16.6221 4.58337 28.6458 4.58337ZM29.7917 22.9167L29.7917 18.3334L18.3333 18.3334L18.3333 22.9167L29.7917 22.9167ZM38.9583 27.5L38.9583 32.0834L18.3333 32.0834L18.3333 27.5L38.9583 27.5Z" fill="#FFFFFF"/>
    <path d="M45.8334 18.3334C49.6304 18.3334 52.7084 15.2554 52.7084 11.4584C52.7084 7.66138 49.6304 4.58337 45.8334 4.58337C42.0363 4.58337 38.9584 7.66138 38.9584 11.4584C38.9584 15.2554 42.0363 18.3334 45.8334 18.3334Z" fill="#FFFFFF"/>
  </g>
  <defs>
    <clipPath id="clip20_131">
      <rect width="55.000000" height="55.000000" fill="white"/>
    </clipPath>
  </defs>
</svg>
