<svg width="271.000000" height="129.718262" viewBox="0 0 271 129.718" fill="none" xmlns="http://www.w3.org/2000/svg" xmlns:xlink="http://www.w3.org/1999/xlink">
  <desc>
    Created with Pixso.
  </desc>
  <rect rx="5.000000" width="271.000000" height="86.000000" fill="#93D6FB"/>
  <rect y="83.000000" width="271.000000" height="15.000000" fill="#F6BE50"/>
  <line y1="83.500000" x2="64.500000" y2="-5.500000" stroke="#FFFFFF" stroke-width="5.000000"/>
  <path d="M142.187 54.2207L145.605 54.2559L145.641 49.1406L143.918 47.418L137.977 47.4531L138.082 44.8604L142.116 44.6406L141.756 45.9414L145.069 46.873L146.036 43.2783L144.349 41.1162L138.196 41.4766L138.267 39.7451L143.452 39.3848L144.999 37.8379L145.43 33.5576L143.698 31.6855L138.592 31.8262L138.662 30.0684L135.278 29.9189L135.208 31.9404L130.383 32.0811L130.778 29.9189L127.465 29.3477L126.964 32.1865L119.687 32.3711L119.757 35.79L126.313 35.6055L126.023 37.1523L121.383 37.4775L119.757 39.209L119.871 44.1045L121.594 45.7568L124.512 45.6162L124.151 47.5586L121.884 47.5586L121.919 47.0576L118.535 46.8027L117.964 54.2207L121.383 54.4316L121.629 50.9775L129.627 50.9424L118.641 57.9297L120.442 60.7334L134.848 51.6279L134.373 50.9072L142.222 50.8369L142.187 54.2207ZM169.767 40.1406L170.197 36.5459L177.105 36.5459L177.105 33.1621L170.593 33.1621L170.918 30.4639L167.534 30.0684L167.174 33.1621L157.989 33.1621L157.989 36.5459L166.778 36.5459L166.348 40.0703L154.175 39.8594L154.105 43.2783L164.326 43.4541L153.349 49.1406L154.931 52.1641L159.255 49.9316L160.151 58.5361L161.848 60.0127L176.534 59.8369L178.187 58.2197L178.371 53.7549L181.069 53.6055L180.885 50.2217L178.512 50.3711L178.696 46.8027L176.895 45.0361L167.499 45.6162L171.454 43.5684L182.616 43.7441L182.651 40.3604L177.791 40.29L181.825 38.1631L180.314 35.1396L170.663 40.1406L169.767 40.1406ZM92.0801 52.6738L90.208 52.8496L90.5244 56.2334L92.3613 56.0576L92.6865 59.9424L96.0703 59.6963L95.7451 55.7324L104.604 54.9062L104.279 51.5576L95.4639 52.3838L95.209 49.5361L106.081 48.8594L105.536 59.5469L108.964 59.7314L109.86 42.0127L108.208 40.2197L107.232 40.2197L110.581 33.6631L107.593 32.1162L103.453 40.1055L102.478 40.0703L101.651 30.1738L98.2676 30.499L99.0234 39.9648L92.8711 39.7803L91.1396 41.6523L92.0801 52.6738ZM210.952 49.4307L209.941 59.1865L213.29 59.5117L214.187 51.0918L217.5 52.7441L219.012 49.7559L210.231 45.291L214.652 44.8955L216.243 43.1641L216.059 31.8262L214.292 30.1738L196.257 30.9297L194.569 32.6523L194.569 37.3018L193.269 37.4072L193.594 40.791L194.569 40.7207L194.569 44.7549L196.441 46.4424L198.094 46.3018L188.953 52.8496L190.931 55.627L198.094 50.4766L197.804 54.1152L193.814 57.3848L195.976 59.9424L200.511 56.2686L201.117 55.082L201.732 47.8486L204.686 45.7568L208.641 45.3965L207.454 47.6641L210.952 49.4307ZM240.36 38.418L242.232 34.5684L253.931 34.7441L253.966 31.3604L225.604 30.8242L225.568 34.2432L238.523 34.4893L236.546 38.5234L227.476 38.708L225.779 40.4658L226.395 57.209L228.047 58.8613L250.942 59.2568L252.674 57.7451L254.476 39.9648L252.744 38.1279L240.36 38.418ZM94.1279 31.5801L91.2451 33.3027L94.708 38.9541L97.582 37.1523L94.1279 31.5801ZM83.5811 32.4766L81.3838 35.0342L87.3604 40.2549L89.6279 37.6973L83.5811 32.4766ZM206.848 42.1621L206.769 39.5342L211.849 39.0684L211.559 35.7197L206.698 36.1855L206.628 33.918L212.675 33.6279L212.824 41.6523L206.848 42.1621ZM203.279 36.4756L197.988 36.9766L197.988 34.2783L203.209 34.0586L203.279 36.4756ZM138.407 36.3262L138.442 35.2451L141.861 35.1396L141.756 36.0801L138.407 36.3262ZM134.988 36.5459L129.478 36.9414L129.768 35.5L135.059 35.3594L134.988 36.5459ZM203.464 42.4521L197.988 42.918L197.988 40.3955L203.385 39.8594L203.464 42.4521ZM134.804 41.6523L128.581 42.0127L128.871 40.3604L134.883 39.9648L134.804 41.6523ZM125.127 42.1973L123.22 42.3027L123.176 40.7207L125.408 40.5801L125.127 42.1973ZM86.71 47.8838L82.5 58.0703L85.6641 59.3711L90.3486 47.9893L89.8037 45.9766L83.5107 41.3359L81.4893 44.0693L86.71 47.8838ZM245.186 55.7676L247.058 41.6523L250.907 41.5469L249.466 55.8379L245.186 55.7676ZM243.243 44.3945L236.581 43.5684L236.546 41.9072L243.604 41.7314L243.243 44.3945ZM233.162 41.9775L233.593 55.5479L229.708 55.4775L229.269 42.0479L233.162 41.9775ZM94.9541 46.1963L94.708 43.2783L106.371 43.5684L106.257 45.4316L94.9541 46.1963ZM134.558 47.4883L127.57 47.5234L127.931 45.4316L134.663 45.0801L134.558 47.4883ZM242.663 48.8945L236.792 49.8613L236.687 46.9521L242.804 47.7783L242.663 48.8945ZM175.128 50.5469L164.186 51.1621L164.361 54.5459L174.987 53.9658L174.873 56.4883L163.395 56.6641L162.568 49.29L175.233 48.5693L175.128 50.5469ZM241.802 55.6973L236.977 55.627L236.906 53.2803L242.197 52.4541L241.802 55.6973ZM132.932 57.1387L144.814 59.9072L145.605 56.6641L133.731 53.8604L132.932 57.1387Z" fill="#FFFFFF"/>
  <path d="M135.089 129.617L149.431 96.8925L120.312 97.0681L135.089 129.617Z" fill-rule="evenodd" fill="#F6BE50"/>
  <defs/>
</svg>
