<svg width="171.000000" height="58.000000" viewBox="0 0 171 58" fill="none" xmlns="http://www.w3.org/2000/svg" xmlns:xlink="http://www.w3.org/1999/xlink">
  <desc>
    Created with Pixso.
  </desc>
  <path d="M42 43.5L10.5 30.9426L10.5 56.0574L42 43.5Z" fill-rule="evenodd" fill="#D84A1D"/>
  <path d="M42 43.5L10.5 30.9426L10.5 56.0574L42 43.5Z" fill-rule="evenodd" fill="#D84A1D"/>
  <rect x="10.000000" width="161.000000" height="44.000000" fill="#E46869"/>
  <path d="M145.437 20.6074L140.969 15.7515L146.909 15.3926L146.763 12.6021L135.718 13.2612L137.908 11.1006L135.93 9.05713L131.433 13.5029L122.519 14.0083L122.673 16.8281L128.401 16.4985L123.267 21.5376L125.222 23.5811L132.693 16.2275L137.336 15.9565L143.371 22.5264L145.437 20.6074ZM50.4932 25.4121L46.1719 27.5435L47.4023 30.063L51.2402 28.2026L52.8882 34.4136L55.6201 33.6592L53.8184 26.9136L56.4624 25.6172L55.2026 23.0684L53.0713 24.123L51.8701 19.6187L56.3965 19.0181L57.5098 17.0112L54.9902 11.8184L52.4414 13.0488L54.0894 16.4692L51.1523 16.8574L49.5923 11.0127L46.8604 11.7012L48.3325 17.2236L40.5029 18.2417L40.1733 13.8032L43.4399 12.2065L42.2095 9.65771L32.5195 14.3965L33.75 16.9233L37.4121 15.1509L37.6831 18.6006L32.5488 19.2598L32.9077 22.0503L37.8882 21.4204L38.1592 25.0166L33.2373 26.9136L34.292 29.521L38.4009 27.9316L38.4888 29.0376L34.1675 32.6411L35.9985 34.8018L40.8618 30.7515L41.3379 29.5503L41.1328 26.877L44.8535 25.4414L43.8574 22.7974L40.9204 23.9399L40.708 21.0615L49.0503 19.9775L50.4932 25.4121ZM110.039 32.1577L111.123 34.7432L116.733 32.458L117.598 31.0811L116.58 14.1328L114.99 12.8071L111.482 13.2905L112.082 10.229L109.321 9.65771L108.508 13.6787L105.029 14.1328L105.417 16.9233L107.908 16.5864L104.399 34.2305L107.19 34.7725L110.881 16.1982L113.848 15.8101L114.719 30.2095L110.039 32.1577ZM63.6621 21.8086L62.0434 22.3213L62.8784 25.0532L63.75 24.7822L63.9331 32.3115L65.6103 33.7178L74.6704 32.1284L75.8423 30.7222L75.4174 14.8506L73.8867 13.4736L70.3784 13.8032L71.8799 11.7598L69.5727 10.1118L66.6284 14.1621L64.8633 14.3086L63.5376 15.7808L63.6621 21.8086ZM79.5263 10.1118L75.9594 17.2822L78.5083 18.5713L79.4677 16.623L85.0781 16.623L84.7192 31.2568L78.1201 30.4512L77.7905 33.3003L85.9204 34.2598L87.539 32.8828L87.9565 15.1802L86.521 13.7666L80.8813 13.7666L82.0825 11.4009L79.5263 10.1118ZM93.8378 13.8618L102.598 14.2793L102.751 11.4595L93.933 11.042L93.8378 13.8618ZM71.2793 19.4722L66.5112 20.937L66.4233 17.0112L72.6269 16.4692L72.9931 29.5503L66.7236 30.627L66.5698 23.9106L72.0923 22.1968L71.2793 19.4722ZM95.7934 30.8687L99.331 20.5195L103.887 20.3071L103.74 17.458L92.4316 17.9707L92.5488 20.8198L96.2695 20.6733L92.4023 32.0405L93.8671 33.8716L100.503 33.2124L100.891 34.7725L103.623 34.1426L101.938 26.8184L99.1479 27.4775L99.8364 30.4512L95.7934 30.8687ZM131.792 20.2485L135.989 23.0098L137.519 20.6367L133.381 17.8828L131.792 20.2485ZM79.1089 20.1606L77.0434 22.1089L81.5112 26.8184L83.5766 24.8115L79.1089 20.1606ZM131.191 25.6465L135.212 30.2388L137.336 28.4077L133.323 23.7568L131.191 25.6465ZM144.961 25.5293L142.412 26.7598L146.008 34.1426L148.557 32.9414L144.961 25.5293ZM128.371 34.5601L130.019 35.3364L143.43 31.9819L142.712 29.25L130.474 32.3408L127.983 26.6426L125.493 26.4302L121.443 32.5532L123.809 34.0767L126.423 30.1509L128.371 34.5601Z" fill="#FFFFFF"/>
  <defs/>
</svg>
