<svg width="55.000000" height="55.000000" viewBox="0 0 55 55" fill="none" xmlns="http://www.w3.org/2000/svg" xmlns:xlink="http://www.w3.org/1999/xlink">
  <desc>
    Created with Pixso.
  </desc>
  <g clip-path="url(#clip20_100)">
    <path d="M41.25 29.7916C41.25 37.3771 35.0854 43.5416 27.5 43.5416C19.9146 43.5416 13.75 37.3771 13.75 29.7916C13.75 22.2062 19.9146 16.0416 27.5 16.0416L27.5 25.2083L38.9583 13.75L27.5 2.29163L27.5 11.4583C17.3708 11.4583 9.16669 19.6625 9.16669 29.7916C9.16669 39.9208 17.3708 48.125 27.5 48.125C37.6292 48.125 45.8334 39.9208 45.8334 29.7916L41.25 29.7916Z" fill="#FFFFFF"/>
    <path d="M24.8875 36.5293L24.8875 26.7439L24.6812 26.7439L20.625 28.1876L20.625 29.7689L22.9396 29.0585L22.9396 36.5293L24.8875 36.5293Z" fill="#FFFFFF"/>
    <path d="M28.0729 30.7998L28.0729 32.4956C28.0729 36.8499 31.075 36.6665 31.3729 36.6665C31.6938 36.6665 34.6729 36.8727 34.6729 32.4956L34.6729 30.7998C34.6729 26.4457 31.6709 26.629 31.3729 26.629C31.0521 26.629 28.0729 26.4227 28.0729 30.7998ZM32.7479 30.5248L32.7479 32.7477C32.7479 34.5123 32.2667 35.1082 31.3958 35.1082C30.525 35.1082 30.0208 34.5123 30.0208 32.7477L30.0208 30.5248C30.0208 28.806 30.525 28.2102 31.3729 28.2102C32.2438 28.1873 32.7479 28.806 32.7479 30.5248Z" fill="#FFFFFF"/>
  </g>
  <defs>
    <clipPath id="clip20_100">
      <rect width="55.000000" height="55.000000" fill="white"/>
    </clipPath>
  </defs>
</svg>
