<svg width="271.000000" height="86.000000" viewBox="0 0 271 86" fill="none" xmlns="http://www.w3.org/2000/svg" xmlns:xlink="http://www.w3.org/1999/xlink">
  <desc>
    Created with Pixso.
  </desc>
  <rect rx="5.000000" width="271.000000" height="86.000000" fill="#FB9DC1"/>
  <line y1="88.519958" x2="64.500000" y2="-2.500031" stroke="#FFFFFF" stroke-width="5.000000"/>
  <path d="M215.499 35.8135L217.116 37L232.058 36.9297L233.71 35.5586L234.976 28.0703L233.174 26.0928L214.884 27.3145L213.407 29.5117L215.499 35.8135ZM117.255 32.9658L118.872 34.9873L131.221 35.4883L131.326 32.1045L121.034 31.709L121.896 27.6396L118.547 26.9189L117.255 32.9658ZM141.337 51.4756L137.918 53.1279L139.395 56.2568L143.824 54.0244L144.756 52.5127L144.686 34.5918L167.836 34.1963L167.757 30.7686L157.43 30.9883L157.465 30.9531L154.582 27.1738L151.813 29.2568L153.176 31.0586L142.919 31.2432L141.267 32.9307L141.337 51.4756ZM190.441 27.71L174.278 54.6748L177.152 56.4062L193.324 29.4766L190.441 27.71ZM115.304 29.0107L102.674 30.918L103.175 34.2666L108.22 33.5107L109.151 50.7197L106.488 51.2207L106.304 45.3145L102.885 45.4639L103.21 53.3477L105.196 54.9297L117.035 52.627L116.35 49.2783L112.465 50.0342L112.069 41.8604L115.418 41.2803L114.838 37.9316L111.885 38.4766L111.604 33.001L115.813 32.3594L115.304 29.0107ZM218.303 33.6162L217.336 30.5576L231.267 29.6172L230.616 33.5811L218.303 33.6162ZM162.65 37.8613L154.837 39.1973L155.408 42.5107L162.58 41.2803L162.431 53.3828L158.001 52.9521L157.72 56.3359L163.978 56.9072L165.85 55.2549L166.034 40.709L168.082 40.3486L167.476 37L166.069 37.2549L166.105 35.0576L162.686 35.0225L162.65 37.8613ZM148.395 42.1855L146.487 55.5801L149.906 56.0107L152.139 39.918L155.232 38.0811L153.501 35.1279L144.861 40.3135L146.663 43.2314L148.395 42.1855ZM121.535 46.7207L116.675 55.5801L119.628 57.1973L123.732 49.709L128.162 55.6504L130.896 53.5938L125.534 46.3955L130.034 38.2217L127.081 36.6045L123.337 43.4072L120.129 39.0918L117.396 41.1045L121.535 46.7207ZM211.43 41.5703L213.152 49.8496L216.466 49.1641L215.139 42.7568L234.756 41.3242L233.139 48.8828L236.408 49.6035L238.57 39.8037L236.769 37.7559L212.977 39.5225L211.43 41.5703ZM190.081 39.7334L187.743 42.1855L201.384 55.0352L203.722 52.5479L190.081 39.7334ZM236.092 55L224.93 48.0479L227.804 45.2793L225.466 42.8359L212.291 55.5801L214.629 57.9883L222.407 50.4648L234.29 57.8828L236.092 55ZM158.546 43.4775L155.197 44.1982L156.814 51.8711L160.198 51.1504L158.546 43.4775Z" fill="#FFFFFF"/>
  <defs/>
</svg>
