<svg width="55.000000" height="55.000000" viewBox="0 0 55 55" fill="none" xmlns="http://www.w3.org/2000/svg" xmlns:xlink="http://www.w3.org/1999/xlink">
  <desc>
    Created with Pixso.
  </desc>
  <path d="M13.8188 7.33325C16.3854 5.59155 19.5021 4.58325 22.9167 4.58325C31.9229 4.58325 38.9583 11.6187 38.9583 20.625C38.9583 23.5125 38.0875 26.6979 36.5062 29.5625C36.4604 29.6542 36.3917 29.7458 36.3229 29.8605L32.9312 26.4688C33.8479 24.4979 34.375 22.4583 34.375 20.625C34.375 14.2083 29.3333 9.16663 22.9167 9.16663C20.8083 9.16663 18.8834 9.76245 17.1875 10.702L13.8188 7.33325ZM39.4396 32.9542L42.7166 36.2312C46.0854 31.923 48.125 26.5146 48.125 20.625C48.125 13.6583 45.3062 7.3562 40.7458 2.79578L37.4916 6.04993C41.2271 9.76245 43.5417 14.9187 43.5417 20.625C43.5417 25.2542 42.0062 29.5167 39.4396 32.9542ZM22.9167 14.8958C22.4354 14.8958 22 14.9645 21.5646 15.0791L28.4625 21.9771C28.5771 21.5416 28.6458 21.1062 28.6458 20.625C28.6458 17.4624 26.0792 14.8958 22.9167 14.8958ZM48.5604 48.5604L6.43961 6.43958L3.18542 9.67078L8.06668 14.552C7.31042 16.4083 6.875 18.4479 6.875 20.625L11.4583 20.625C11.4583 19.7999 11.5729 18.9978 11.7333 18.2188L26.8812 33.3667C24.8646 34.925 22.8021 36.5979 21.6792 40.0125C20.5333 43.45 19.3875 44.6188 17.7604 45.4667C17.325 45.6958 16.7063 45.8334 16.0417 45.8334C13.5208 45.8334 11.4583 43.7709 11.4583 41.25L6.875 41.25C6.875 46.3146 10.9771 50.4166 16.0417 50.4166C17.3479 50.4166 18.6313 50.1417 19.8 49.6146C22.9167 47.9875 24.6812 45.65 26.0562 41.4791C26.7896 39.2334 28.1187 38.2021 29.975 36.7812C30.0437 36.7355 30.0896 36.6896 30.1583 36.6438L45.3291 51.8146L48.5604 48.5604Z" fill="#FFFFFF"/>
  <defs/>
</svg>
