<svg width="171.000000" height="58.000000" viewBox="0 0 171 58" fill="none" xmlns="http://www.w3.org/2000/svg" xmlns:xlink="http://www.w3.org/1999/xlink">
  <desc>
    Created with Pixso.
  </desc>
  <path d="M42 43.5L10.5 30.9426L10.5 56.0574L42 43.5Z" fill-rule="evenodd" fill="#D84A1D"/>
  <path d="M42 43.5L10.5 30.9426L10.5 56.0574L42 43.5Z" fill-rule="evenodd" fill="#D84A1D"/>
  <rect x="10.000000" width="161.000000" height="44.000000" fill="#E46869"/>
  <path d="M99.3896 9.72363L91.4428 17.7583L93.4789 19.7725L101.433 11.7012L99.3896 9.72363ZM127.353 14.8799L123.303 15.1802L123.508 17.9707L127.317 17.6997L127.053 34.5601L129.836 34.5894L130.019 23.0684L132.392 24.5112L133.857 22.0796L130.078 19.8018L130.137 17.5166L132.781 17.3115L132.539 14.4917L130.173 14.6675L130.261 9.84082L127.441 9.81152L127.353 14.8799ZM134.487 14.3672L133.74 32.0405L136.56 32.187L137.007 22.2334L141.328 21.5376L142.383 34.6187L145.203 34.4136L144.148 21.0908L147.839 20.4902L147.392 17.6704L137.131 19.3477L137.307 15.4805L146.433 12.5435L145.561 9.84082L135.513 13.1074L134.487 14.3672ZM44.6997 9.95801L42.7222 16.1982L44.1577 18.0293L52.4707 17.3701L48.5376 23.3394L45.2124 19.6479L43.1104 21.5669L46.9482 25.771L43.2568 31.4106L45.6299 32.9707L48.9331 27.9316L54.5068 34.0474L56.6089 32.1284L50.5225 25.5L56.0083 17.0991L57.2974 16.9819L57.063 14.1621L46.0474 15.0337L47.4023 10.8296L44.6997 9.95801ZM32.7319 13.5615L33.7793 26.4009L35.8521 27.5068L38.3423 26.2178L38.4302 34.4136L41.25 34.377L40.9497 10.0166L38.1299 10.0532L38.2764 23.0684L36.4526 24.0278L35.5518 13.3198L32.7319 13.5615ZM75.3003 10.5586L72.81 11.9136L84.602 33.7178L87.063 32.3701L75.3003 10.5586ZM110.369 10.9834L108.691 13.2612L116.821 19.377L118.557 17.0991L110.369 10.9834ZM100.408 22.6802L93.0322 33.1172L95.3686 34.6772L104.128 22.3799L110.281 21.8672L110.669 31.3521L105.33 29.3672L104.311 32.0112L111.716 34.7065L113.643 33.3589L113.042 20.2778L111.511 18.9009L94.8632 20.2485L95.0683 23.0977L100.408 22.6802ZM72.9272 19.0181L62.9077 32.187L65.1635 33.9009L75.1831 20.7612L72.9272 19.0181ZM123.838 20.1899L122.161 30.3267L124.951 30.8101L126.658 20.6733L123.838 20.1899Z" fill="#FFFFFF"/>
  <defs/>
</svg>
