<svg width="77.000000" height="77.000000" viewBox="0 0 77 77" fill="none" xmlns="http://www.w3.org/2000/svg" xmlns:xlink="http://www.w3.org/1999/xlink">
  <desc>
    Created with Pixso.
  </desc>
  <path d="M51.3334 25.6682C51.3334 23.1155 50.3192 20.6674 48.5142 18.8623C46.7092 17.0573 44.2609 16.0432 41.7084 16.0432L12.8334 16.0432C10.2807 16.0432 7.83252 17.0573 6.02747 18.8623C4.22244 20.6674 3.20837 23.1155 3.20837 25.6682L3.20837 51.335C3.20837 53.8875 4.22244 56.3357 6.02747 58.1407C7.83252 59.9458 10.2807 60.96 12.8334 60.96L41.7084 60.96C44.2609 60.96 46.7092 59.9458 48.5142 58.1407C50.3192 56.3357 51.3334 53.8875 51.3334 51.335L51.3334 44.7354L68.7193 57.1516C69.199 57.4939 69.7633 57.6976 70.3511 57.7404C70.9385 57.783 71.5266 57.6631 72.0505 57.3936C72.5745 57.124 73.0143 56.7156 73.3214 56.2129C73.6284 55.7101 73.7911 55.1323 73.7917 54.5432L73.7917 22.4598C73.7917 21.8705 73.6294 21.2924 73.3226 20.7892C73.0156 20.2859 72.576 19.877 72.0522 19.6071C71.5279 19.3373 70.9398 19.217 70.3517 19.2596C69.764 19.3021 69.199 19.5059 68.7193 19.8483L51.3334 32.2645L51.3334 25.6682ZM53.6434 38.5016L67.375 28.6937L67.375 48.3094L53.6434 38.5016ZM41.7084 22.4598C42.5592 22.4598 43.3754 22.7979 43.977 23.3995C44.5786 24.0012 44.9167 24.8173 44.9167 25.6682L44.9167 51.335C44.9167 52.1858 44.5786 53.002 43.977 53.6035C43.3754 54.2051 42.5592 54.5432 41.7084 54.5432L12.8334 54.5432C11.9825 54.5432 11.1664 54.2051 10.5647 53.6035C9.96307 53.002 9.62503 52.1858 9.62503 51.335L9.62503 25.6682C9.62503 24.8173 9.96307 24.0012 10.5647 23.3995C11.1664 22.7979 11.9825 22.4598 12.8334 22.4598L41.7084 22.4598Z" fill="#FFFFFF"/>
  <defs/>
</svg>
