<svg width="171.000000" height="58.000000" viewBox="0 0 171 58" fill="none" xmlns="http://www.w3.org/2000/svg" xmlns:xlink="http://www.w3.org/1999/xlink">
  <desc>
    Created with Pixso.
  </desc>
  <path d="M42 43.5L10.5 30.9426L10.5 56.0574L42 43.5Z" fill-rule="evenodd" fill="#D84A1D"/>
  <path d="M42 43.5L10.5 30.9426L10.5 56.0574L42 43.5Z" fill-rule="evenodd" fill="#D84A1D"/>
  <rect x="10.000000" width="161.000000" height="44.000000" fill="#E46869"/>
  <path d="M75.9887 30.1216L76.2597 27.0894L83.5473 26.2471L84.7778 25.0166L86.0376 15.6636L84.5727 14.0669L80.039 14.1914L82.3828 11.0713L80.0976 9.35742L76.4428 14.3086L71.3086 14.4331L72.4804 13.0781L69.3017 10.3169L67.4414 12.4482L69.7778 14.4917L64.8925 14.6089L63.479 16.3228L64.1382 19.9775L62.8491 20.0728L63.0908 22.9219L64.6508 22.7974L65.3979 26.9722L66.9873 28.1074L73.4106 27.3896L73.1396 30.2974L62.8784 30.9565L63.0908 33.7764L72.8979 33.1465L72.7514 34.8018L75.5713 35.0068L75.747 32.9707L87.1508 32.2529L86.9677 29.3965L75.9887 30.1216ZM107.637 11.7305L104.912 14.6382L107.007 16.5864L109.021 14.4624L109.38 14.4624L113.159 17.4873L114.961 15.2974L113.818 14.3965L116.968 14.3379L116.938 11.4888L111.716 11.5767L111.811 11.4595L109.709 9.51123L107.732 11.6133L107.637 11.6133L107.637 11.7305ZM96.7236 9.54053L92.0434 15.063L94.1674 16.8867L95.8227 14.9971L97.1411 14.9092L99.8364 17.6411L101.909 15.627L100.891 14.6089L104.612 14.3379L104.429 11.4888L98.4301 11.9429L98.9135 11.4009L96.7236 9.54053ZM132.51 15.9272L131.038 16.0811L131.338 18.8716L132.839 18.7471L133.227 22.1382L134.641 23.4272L138.362 23.3687L138.362 25.8296L133.227 26.1592L133.411 28.979L138.362 28.6494L138.391 31.4985L130.979 31.8281L131.133 34.6187L147.993 33.8716L147.898 31.0811L141.24 31.3813L141.211 28.4736L146.697 28.0781L146.492 25.2583L141.211 25.6172L141.211 23.3101L145.232 23.2222L146.609 21.9624L147.598 11.3423L146.103 9.81152L133.411 10.4414L132.063 12.0308L132.51 15.9272ZM34.1089 11.8184L37.8589 15.7222L39.9023 13.7666L36.123 9.87012L34.1089 11.8184ZM54.4189 31.3521L53.4595 13.8911L57.2974 13.5615L57.063 10.771L41.792 12.1187L42.063 14.9092L50.6104 14.1621L51.5405 30.2974L45.1465 31.8281L45.8423 34.5601L53.3423 32.7583L54.4189 31.3521ZM130.891 11.1299L122.432 12.0308L122.732 14.8213L125.193 14.5796L125.339 19.6479L123.091 19.4429L122.849 22.2627L125.427 22.5264L125.669 30.1802L122.007 31.7402L123.149 34.377L131.462 30.7808L130.349 28.1733L128.459 28.979L128.276 22.7974L130.349 22.9805L130.591 20.1606L128.188 19.9482L128.042 14.2793L131.191 13.9204L130.891 11.1299ZM143.913 20.4316L141.211 20.4902L141.211 17.9707L142.8 17.8169L142.5 14.9678L141.211 15.0923L141.211 12.9023L144.631 12.7192L143.913 20.4316ZM138.362 15.3926L135.329 15.6636L135.059 13.2319L138.362 13.0488L138.362 15.3926ZM34.5923 32.3994L40.4077 34.1719L41.2207 31.4692L36.7236 30.1216L39.9609 17.9707L38.7891 16.1982L33.0908 15.3267L32.6733 18.1465L36.8115 18.7471L33.6035 30.7222L34.5923 32.3994ZM93.933 18.813L92.7319 23.8813L95.4931 24.5405L96.4233 20.5781L114.836 20.5488L114.272 23.2808L117.092 23.8521L117.956 19.377L116.58 17.6997L106.23 17.729L104.487 15.3926L102.239 17.1284L102.693 17.729L95.31 17.729L93.933 18.813ZM76.5307 24.1816L76.7431 21.8379L80.8227 21.5083L80.581 18.7178L76.9775 18.9888L77.1606 17.1284L82.9834 16.9526L82.1411 23.5518L76.5307 24.1816ZM74.1284 19.2305L66.9873 19.7725L66.5698 17.3994L74.3115 17.187L74.1284 19.2305ZM138.362 20.5488L135.901 20.5781L135.659 18.4834L138.362 18.2417L138.362 20.5488ZM96.6284 23.0098L97.1411 33.6006L98.6132 34.8896L113.071 34.6479L114.477 33.3003L114.543 29.4331L113.071 27.9609L99.7192 28.2905L99.5434 24.3281L109.922 23.9985L109.739 24.5991L101.279 24.9287L101.367 27.7778L110.793 27.3896L112.112 26.4595L113.342 22.9805L111.958 21.0615L97.9833 21.5083L96.6284 23.0098ZM73.6523 24.5112L67.9467 25.1704L67.4707 22.5923L73.8867 22.0796L73.6523 24.5112ZM111.658 31.8574L99.9316 32.0991L99.873 31.1396L111.658 30.8394L111.658 31.8574Z" fill="#FFFFFF"/>
  <defs/>
</svg>
