<svg width="271.000000" height="86.000000" viewBox="0 0 271 86" fill="none" xmlns="http://www.w3.org/2000/svg" xmlns:xlink="http://www.w3.org/1999/xlink">
  <desc>
    Created with Pixso.
  </desc>
  <rect rx="5.000000" width="271.000000" height="86.000000" fill="#695E89"/>
  <path d="M139.629 38.0576L140.499 35.2451L146.432 34.9639L146.291 31.5361L141.58 31.7559L142.081 30.1387L138.838 29.1631L137.977 31.9404L126.419 32.4414L125.733 29.708L122.464 30.499L122.965 32.6172L117.964 32.8369L118.14 36.2559L123.826 36.001L124.257 37.6973L127.535 36.9062L127.245 35.8604L136.931 35.3945L136.105 38.1279L119.15 38.4883L117.489 40.3604L118.175 45.7217L121.559 45.2559L121.093 41.8018L142.696 41.3711L141.756 44.8955L145.034 45.7568L146.511 40.0352L144.85 37.9521L139.629 38.0576ZM111.548 42.9531L103.348 38.6641L108.129 34.7441L107.268 31.791L92.1152 29.9893L91.7197 33.3027L102.908 34.6738L90.2783 45.0361L92.4316 47.6641L100.5 41.0459L109.966 45.9414L111.548 42.9531ZM169.767 40.1406L170.197 36.5459L177.105 36.5459L177.105 33.1621L170.593 33.1621L170.918 30.4639L167.534 30.0684L167.174 33.1621L157.989 33.1621L157.989 36.5459L166.778 36.5459L166.348 40.0703L154.175 39.8594L154.105 43.2783L164.326 43.4541L153.349 49.1406L154.931 52.1641L159.255 49.9316L160.151 58.5361L161.848 60.0127L176.534 59.8369L178.187 58.2197L178.371 53.7549L181.069 53.6055L180.885 50.2217L178.512 50.3711L178.696 46.8027L176.895 45.0361L167.499 45.6162L171.454 43.5684L182.616 43.7441L182.651 40.3604L177.791 40.29L181.825 38.1631L180.314 35.1396L170.663 40.1406L169.767 40.1406ZM210.952 49.4307L209.941 59.1865L213.29 59.5117L214.187 51.0918L217.5 52.7441L219.012 49.7559L210.231 45.291L214.652 44.8955L216.243 43.1641L216.059 31.8262L214.292 30.1738L196.257 30.9297L194.569 32.6523L194.569 37.3018L193.269 37.4072L193.594 40.791L194.569 40.7207L194.569 44.7549L196.441 46.4424L198.094 46.3018L188.953 52.8496L190.931 55.627L198.094 50.4766L197.804 54.1152L193.814 57.3848L195.976 59.9424L200.511 56.2686L201.117 55.082L201.732 47.8486L204.686 45.7568L208.641 45.3965L207.454 47.6641L210.952 49.4307ZM240.36 38.418L242.232 34.5684L253.931 34.7441L253.966 31.3604L225.604 30.8242L225.568 34.2432L238.523 34.4893L236.546 38.5234L227.476 38.708L225.779 40.4658L226.395 57.209L228.047 58.8613L250.942 59.2568L252.674 57.7451L254.476 39.9648L252.744 38.1279L240.36 38.418ZM82.0693 51.5928L88.9072 53.0342L89.5928 49.6855L85.4531 48.8242L90.6035 42.3379L89.918 39.71L84.5479 37.4424L88.6963 33.2324L86.2793 30.8945L80.4082 36.8711L80.9531 39.6045L86.5342 41.9424L81.0938 48.8945L82.0693 51.5928ZM206.848 42.1621L206.769 39.5342L211.849 39.0684L211.559 35.7197L206.698 36.1855L206.628 33.918L212.675 33.6279L212.824 41.6523L206.848 42.1621ZM203.279 36.4756L197.988 36.9766L197.988 34.2783L203.209 34.0586L203.279 36.4756ZM203.464 42.4521L197.988 42.918L197.988 40.3955L203.385 39.8594L203.464 42.4521ZM245.186 55.7676L247.058 41.6523L250.907 41.5469L249.466 55.8379L245.186 55.7676ZM243.243 44.3945L236.581 43.5684L236.546 41.9072L243.604 41.7314L243.243 44.3945ZM233.162 41.9775L233.593 55.5479L229.708 55.4775L229.269 42.0479L233.162 41.9775ZM124.617 49.5361L126.243 50.8018L138.047 50.7314L139.629 49.5801L141.466 44.6406L139.813 42.3379L124.978 42.8828L123.396 45.001L124.617 49.5361ZM127.535 47.418L127.21 46.1523L137.432 45.8711L136.86 47.3477L127.535 47.418ZM102.987 50.1865L107.162 50.4062L107.373 47.0225L95.209 46.3721L95.0244 49.791L99.6035 50.0459L98.9883 56.3828L92.6514 56.8486L92.9414 60.1621L110.511 58.8613L110.291 55.4775L102.407 56.0928L102.987 50.1865ZM242.663 48.8945L236.792 49.8613L236.687 46.9521L242.804 47.7783L242.663 48.8945ZM175.128 50.5469L164.186 51.1621L164.361 54.5459L174.987 53.9658L174.873 56.4883L163.395 56.6641L162.568 49.29L175.233 48.5693L175.128 50.5469ZM120.548 59.4414L122.314 60.918L142.512 60.1973L144.129 58.8262L145.069 53.2451L143.338 51.2676L121.488 52.4541L119.941 54.3613L120.548 59.4414ZM241.802 55.6973L236.977 55.627L236.906 53.2803L242.197 52.4541L241.802 55.6973ZM80.5225 56.5586L81.5244 59.7314L92.5811 56.1631L91.5 52.9199L80.5225 56.5586ZM123.756 57.499L123.536 55.7676L141.396 54.7568L141.035 56.9189L123.756 57.499Z" fill="#FFFFFF"/>
  <line y1="85.519958" x2="64.500000" y2="-5.500031" stroke="#FFFFFF" stroke-width="5.000000"/>
  <g clip-path="url(#clip6_47)">
    <path d="M30 34.9827C35.5228 34.9827 40 29.9996 40 23.853C40 17.7063 35.5228 12.7234 30 12.7234C24.4771 12.7234 20 17.7063 20 23.853C20 29.9996 24.4771 34.9827 30 34.9827Z" fill="#FFFFFF"/>
    <path d="M26.7118 40.5475C19.8286 40.5475 13.8289 45.7612 12.1595 53.193L10 62.8068L50 62.8068L47.8405 53.193C46.171 45.7612 40.1713 40.5475 33.2882 40.5475L26.7118 40.5475Z" fill="#FFFFFF"/>
  </g>
  <defs>
    <clipPath id="clip6_47">
      <rect width="60.000000" height="66.777786" transform="translate(0.000000 1.593750)" fill="white"/>
    </clipPath>
  </defs>
</svg>
