<svg width="55.000000" height="55.000000" viewBox="0 0 55 55" fill="none" xmlns="http://www.w3.org/2000/svg" xmlns:xlink="http://www.w3.org/1999/xlink">
  <desc>
    Created with Pixso.
  </desc>
  <g clip-path="url(#clip20_116)">
    <path d="M16.6087 16.4048C17.4422 17.3572 18.89 17.4537 19.8425 16.6204L25.2084 11.9252L25.2084 38.9583L29.7917 38.9583L29.7917 11.925L35.1576 16.6204C36.11 17.4537 37.5579 17.3572 38.3914 16.4048C39.2249 15.4523 39.1284 14.0044 38.1758 13.171L27.5 3.82971L16.8243 13.171C15.8718 14.0044 15.7753 15.4523 16.6087 16.4048Z" fill="#FFFFFF"/>
    <path d="M11.4583 29.7916C11.4583 28.5259 12.4843 27.5 13.75 27.5L20.625 27.5L20.625 22.9166L13.75 22.9166C9.95306 22.9166 6.875 25.9945 6.875 29.7916L6.875 43.5416C6.875 47.3387 9.95306 50.4166 13.75 50.4166L41.25 50.4166C45.0471 50.4166 48.125 47.3387 48.125 43.5416L48.125 29.7916C48.125 25.9945 45.0471 22.9166 41.25 22.9166L34.375 22.9166L34.375 27.5L41.25 27.5C42.5157 27.5 43.5417 28.5259 43.5417 29.7916L43.5417 43.5416C43.5417 44.8074 42.5157 45.8333 41.25 45.8333L13.75 45.8333C12.4843 45.8333 11.4583 44.8074 11.4583 43.5416L11.4583 29.7916Z" fill="#FFFFFF"/>
  </g>
  <defs>
    <clipPath id="clip20_116">
      <rect width="55.000000" height="55.000000" fill="white"/>
    </clipPath>
  </defs>
</svg>
