<svg width="85.000000" height="85.000000" viewBox="0 0 85 85" fill="none" xmlns="http://www.w3.org/2000/svg" xmlns:xlink="http://www.w3.org/1999/xlink">
  <desc>
    Created with Pixso.
  </desc>
  <g opacity="0.980000">
    <path d="M27.7844 16.9127C36.9644 15.6129 48.0356 15.6129 57.2156 16.9127C65.5563 18.0957 72.0198 23.9465 73.2523 30.2506C74.7504 37.8828 74.7504 47.1195 73.2523 54.7518C72.0163 61.056 65.5563 66.9069 57.2156 68.0897C48.0356 69.3895 36.9608 69.3895 27.7844 68.0897C19.4437 66.9069 12.9837 61.056 11.7477 54.7518C10.2496 47.1195 10.2496 37.8828 11.7477 30.2506C12.9837 23.9465 19.4437 18.0957 27.7844 16.9127ZM58.2073 9.90027C48.3721 8.5083 36.6279 8.5083 26.7927 9.90027C16.1146 11.4125 6.72916 19.0306 4.79895 28.8906C3.12375 37.4225 3.12375 47.58 4.79895 56.1118C6.72916 65.9718 16.1146 73.59 26.7927 75.1023C36.6279 76.4941 48.3721 76.4941 58.2073 75.1023C68.8854 73.59 78.2709 65.9718 80.2011 56.1118C81.8763 47.58 81.8763 37.4225 80.2011 28.8906C78.2709 19.0306 68.8854 11.4125 58.2073 9.90027ZM37.3823 25.3879C36.8489 25.0321 36.2288 24.8276 35.5884 24.7966C34.9481 24.7655 34.3112 24.9088 33.7458 25.2113C33.1805 25.5138 32.7078 25.9641 32.3784 26.5142C32.0489 27.0642 31.8749 27.6935 31.875 28.3346L31.875 56.6678C31.8749 57.3093 32.0489 57.9382 32.3784 58.4883C32.7078 59.0383 33.1805 59.4888 33.7458 59.7913C34.3112 60.0938 34.9481 60.2372 35.5884 60.2061C36.2288 60.1748 36.8489 59.9705 37.3823 59.6145L58.6323 45.4479C59.1175 45.1245 59.5149 44.6864 59.7901 44.1721C60.0653 43.6582 60.2091 43.0841 60.2091 42.5012C60.2091 41.9182 60.0653 41.3441 59.7901 40.8302C59.5149 40.3164 59.1175 39.8779 58.6323 39.5546L37.3823 25.3879ZM50.2811 42.5012L38.9583 50.052L38.9583 34.954L50.2811 42.5012Z" fill="#FFFFFF"/>
  </g>
  <defs/>
</svg>
