<svg width="171.000000" height="58.000000" viewBox="0 0 171 58" fill="none" xmlns="http://www.w3.org/2000/svg" xmlns:xlink="http://www.w3.org/1999/xlink">
	<desc>
			Created with Pixso.
	</desc>
	<path d="M42 43.5L10.5 30.9426L10.5 56.0574L42 43.5Z" fill-rule="evenodd" fill="#D84A1D"/>
	<path d="M42 43.5L10.5 30.9426L10.5 56.0574L42 43.5Z" fill-rule="evenodd" fill="#D84A1D"/>
	<rect x="10.000000" width="161.000000" height="44.000000" fill="#E46869"/>
	<path d="M62.4316 33.3882L64.6508 35.1021L67.3535 31.7988L67.6465 30.8687L66.9287 15.9565L87.3266 15.5098L87.268 12.6606L76.8603 12.9023L75.1831 9.35742L72.6269 10.5586L73.7695 12.9609L65.4272 13.1367L64.0503 14.6382L64.7973 30.4512L62.4316 33.3882ZM39.1772 9.59912L32.0068 17.8169L34.1382 19.7065L35.3687 18.3003L34.7388 34.2012L37.5879 34.3184L38.3716 14.8506L41.3086 11.4888L39.1772 9.59912ZM102.122 15.6929L92.7905 16.3813L92.9736 19.2012L100.561 18.6299L92.8198 33.3882L95.3393 34.7432L103.923 18.3589L117.209 17.3408L116.968 14.5503L105.447 15.4219L107.79 10.9834L105.271 9.65771L102.122 15.6929ZM123.508 34.0474L126.328 34.2598L127.859 12.5728L146.492 12.5728L146.492 9.75293L126.54 9.75293L125.127 11.0713L123.508 34.0474ZM43.7695 26.2178L40.6787 33.7178L43.2935 34.8018L46.9482 25.9834L57.9565 25.1411L57.7515 22.3213L53.0127 22.6802L53.1299 16.5278L56.1035 16.0518L55.6494 13.2612L53.2178 13.6494L53.2764 10.8589L50.4272 10.771L50.3394 14.1035L45.7471 14.792L45.7471 11.0127L42.8979 11.0127L42.8979 15.2388L40.8032 15.5684L41.25 18.3882L42.8979 18.1465L42.8979 23.4272L39.3018 23.6982L39.5068 26.5474L43.7695 26.2178ZM130.979 31.5571L140.01 34.6479L141.899 33.3882L142.471 18.6592L146.433 18.4175L146.25 15.5977L129.206 16.6523L129.39 19.4722L139.621 18.8423L139.138 31.4106L131.909 28.8911L130.979 31.5571ZM50.1636 22.8926L45.7471 23.2222L45.7471 17.6997L50.2808 16.9819L50.1636 22.8926ZM87.5683 32.2529L83.2763 32.1284L87.063 18.271L84.3603 17.5166L80.3686 32.0698L68.518 31.7402L68.4301 34.5601L87.4804 35.0728L87.5683 32.2529ZM74.0991 19.0181L77.5488 27.2725L80.1635 26.1885L76.6772 17.9414L74.0991 19.0181ZM68.518 19.8018L73.1689 29.8506L75.747 28.6494L71.0669 18.6006L68.518 19.8018ZM108.721 21.8965L106.531 23.6982L114.243 33.2417L116.462 31.4985L108.721 21.8965ZM51.9873 27.0894L49.9512 29.0669L54.2065 33.5127L56.2793 31.5571L51.9873 27.0894Z" fill="#FFFFFF"/>
	<defs/>
</svg>
