<svg width="171.000000" height="58.000000" viewBox="0 0 171 58" fill="none" xmlns="http://www.w3.org/2000/svg" xmlns:xlink="http://www.w3.org/1999/xlink">
  <desc>
    Created with Pixso.
  </desc>
  <path d="M42 43.5L10.5 30.9426L10.5 56.0574L42 43.5Z" fill-rule="evenodd" fill="#D84A1D"/>
  <rect x="10.000000" width="161.000000" height="44.000000" fill="#E46869"/>
  <path d="M130.107 11.8477L128.43 33.8423L131.25 33.9888L132.81 13.2319L138.45 12.8071L137.248 15.0337L135.483 15.1509L134.158 16.5864L134.158 19.377L132.751 19.5015L132.956 22.3213L134.158 22.2334L134.158 24.2988L135.63 25.7417L138.567 25.6831L138.809 30.8979L136.26 32.9707L138.061 35.1313L141.182 32.6411L141.658 31.4692L141.387 25.6172L145.62 25.5L146.997 24.2695L147.898 16.0225L146.396 14.4331L140.552 14.8213L141.357 13.3198L140.163 12.6606L147.151 12.1187L146.909 9.29883L131.396 10.5293L130.107 11.8477ZM34.6802 13.4077L34.9219 16.2275L55.8618 14.4331L55.6494 11.6133L46.2598 12.4189L42.8979 9.35742L40.979 11.4595L42.3926 12.7485L34.6802 13.4077ZM101.008 14.25L99.2065 14.2793L99.2724 17.0698L101.968 17.0112L102.268 23.8813L101.492 23.9399L101.462 18.1172L98.6132 18.1831L98.6718 25.4707L100.232 26.877L102.393 26.7305L102.48 28.2905L99.331 32.3115L101.58 34.0181L105.029 29.6089L105.33 28.6787L105.242 26.5474L106.831 26.4302L108.12 25.0825L108.267 17.7583L105.417 17.729L105.33 23.6689L105.088 23.6982L104.788 16.9526L107.908 16.8574L107.878 14.0376L105.483 14.1328L107.82 11.8184L105.842 9.81152L103.169 12.4189L101.367 10.1411L99.1772 11.9136L101.008 14.25ZM65.9985 12.0308L67.1997 20.3071L68.7011 21.5083L82.5586 20.4609L83.8183 19.2305L84.6606 11.9722L83.247 10.4121L67.4121 10.4121L65.9985 12.0308ZM124.526 10.5293L122.849 12.8364L127.5 16.2275L129.177 13.9497L124.526 10.5293ZM94.5263 10.5879L92.7612 12.8071L97.0825 16.2935L98.8769 14.1328L94.5263 10.5879ZM108.538 28.2612L106.56 33.6592L109.233 34.6187L111.57 28.3198L114.031 28.3784L114.089 25.5586L112.258 25.5293L112.082 20.5781L114.69 20.8198L114.507 30.4805L112.471 31.6816L113.943 34.1133L116.638 32.458L117.327 31.2935L117.664 12.3604L116.133 10.9175L110.193 11.4888L108.933 12.9609L109.409 25.4414L108.179 25.4121L108.091 28.2319L108.538 28.2612ZM81.1523 17.7583L69.8364 18.5713L69.06 13.2319L81.687 13.2319L81.1523 17.7583ZM111.958 17.729L111.811 14.1621L114.807 13.8911L114.719 17.9707L111.958 17.729ZM38.7598 22.9219L56.4331 23.4565L56.521 20.6367L49.6509 20.4316L53.0127 17.7876L51.2695 15.5977L45.8716 19.8311L40.5029 16.2275L38.9136 18.6006L41.2793 20.1899L34.9219 19.9775L34.7974 22.7974L35.9399 22.8267L33.479 34.4429L36.2109 35.0435L38.7598 22.9219ZM125.911 21.75L122.761 32.3994L125.522 33.2417L128.913 21.5376L128.313 19.9482L123.332 16.7695L121.831 19.1719L125.911 21.75ZM143.547 18.6006L137.007 19.1426L137.007 17.8828L144.902 17.3701L144.331 22.6802L137.007 22.8926L137.007 21.9917L143.76 21.4204L143.547 18.6006ZM95.4565 23.5811L93.3911 33.813L96.1816 34.377L98.3715 23.3687L97.9833 22.0796L94.2919 18.5713L92.3364 20.6074L95.4565 23.5811ZM63.9624 32.8828L65.3393 34.0181L72.2973 34.0181L73.7402 32.7876L74.7583 23.9399L73.2568 22.3799L63.9624 23.2222L62.6733 24.8408L63.9624 32.8828ZM76.6186 32.729L78.0029 34.0181L84.8364 34.0181L86.25 32.7876L87.2973 23.9399L85.8618 22.3799L77.4023 22.8267L76.1133 24.3281L76.6186 32.729ZM84.3017 25.2876L83.6133 31.2275L79.3506 31.2275L78.9917 25.5586L84.3017 25.2876ZM71.7627 25.3169L71.0669 31.2275L66.5405 31.2275L65.6982 25.8882L71.7627 25.3169ZM134.971 26.7891L132.063 33.1172L134.612 34.2891L137.549 27.9902L134.971 26.7891ZM144.661 27.9902L142.471 29.7334L145.92 34.0767L148.169 32.3701L144.661 27.9902Z" fill="#FFFFFF"/>
  <defs/>
</svg>
