<svg width="171.000000" height="58.000000" viewBox="0 0 171 58" fill="none" xmlns="http://www.w3.org/2000/svg" xmlns:xlink="http://www.w3.org/1999/xlink">
  <desc>
    Created with Pixso.
  </desc>
  <path d="M42 43.5L10.5 30.9426L10.5 56.0574L42 43.5Z" fill-rule="evenodd" fill="#D84A1D"/>
  <path d="M42 43.5L10.5 30.9426L10.5 56.0574L42 43.5Z" fill-rule="evenodd" fill="#D84A1D"/>
  <rect x="10.000000" width="161.000000" height="44.000000" fill="#E46869"/>
  <path d="M36.2402 13.2026L35.0977 13.2612L35.2515 16.0811L36.7529 16.0225L37.1118 17.8169L38.5181 18.9888L51.3574 18.9595L52.771 17.6704L53.5181 10.4414L52.0532 8.91064L37.1704 9.48193L35.8521 11.1592L36.2402 13.2026ZM94.6801 13.4077L94.9218 16.2275L115.862 14.4331L115.649 11.6133L106.26 12.4189L102.898 9.35742L100.979 11.4595L102.393 12.7485L94.6801 13.4077ZM68.3716 12.4189L64.3213 12.7192L64.497 15.5684L76.3183 14.6675L76.1133 11.8477L71.6674 12.1772L69.6313 9.42334L67.3828 11.1006L68.3716 12.4189ZM79.021 12.1187L77.9077 13.5322L78.3618 34.377L81.2109 34.3184L80.9692 21.6035L82.7124 21.3325L84.1772 33.4468L86.997 33.1172L85.5029 20.9077L87.2973 20.6367L86.8506 17.8535L80.9106 18.7764L80.8227 14.5796L87.0263 13.0488L86.3672 10.3169L79.021 12.1187ZM127.412 10.4121L125.998 12.0308L127.2 20.3071L128.701 21.5083L142.559 20.4609L143.818 19.2305L144.661 11.9722L143.247 10.4121L127.412 10.4121ZM49.4678 12.5068L39.0601 13.0488L38.9136 12.2432L50.5225 11.7891L50.0977 16.1396L39.6606 16.1689L39.6021 15.8687L49.6216 15.3267L49.4678 12.5068ZM141.152 17.7583L129.836 18.5713L129.06 13.2319L141.687 13.2319L141.152 17.7583ZM72.5097 30.9272L72.063 26.2764L77.0727 26.3423L77.102 23.4932L71.8213 23.4272L71.6674 21.8086L76.9775 21.3325L76.7065 18.542L74.8828 18.6885L76.0766 16.1396L73.4985 14.9385L71.6382 18.9595L69.7192 19.1426L67.8589 15.7515L65.3979 17.0991L66.6284 19.377L64.768 19.5308L64.9804 22.3799L68.8476 22.0503L68.9721 23.3979L63.8672 23.3394L63.8672 26.1885L69.2065 26.2471L69.6313 30.5977L67.3828 33.1465L69.4775 34.9775L72.1508 32.0405L72.5097 30.9272ZM98.7597 22.9219L116.433 23.4565L116.521 20.6367L109.651 20.4316L113.013 17.7876L111.269 15.5977L105.872 19.8311L100.503 16.2275L98.9135 18.6006L101.279 20.1899L94.9218 19.9775L94.7973 22.7974L95.9399 22.8267L93.4789 34.4429L96.2109 35.0435L98.7597 22.9219ZM34.7681 24.1523L34.0503 24.2402L34.4971 27.0601L35.0977 26.9722L35.6982 31.6816L33.3618 32.187L33.9624 34.9775L41.792 33.1831L41.7334 35.4609L44.5532 35.5195L44.6411 32.5532L46.1719 32.187L45.5127 29.4624L44.729 29.6382L44.9707 22.5264L56.9678 22.1675L56.8799 19.377L33.0322 20.0068L33.1201 22.8633L34.5923 22.8267L34.7681 24.1523ZM123.962 32.8828L125.339 34.0181L132.297 34.0181L133.74 32.7876L134.758 23.9399L133.257 22.3799L123.962 23.2222L122.673 24.8408L123.962 32.8828ZM136.619 32.729L138.003 34.0181L144.836 34.0181L146.25 32.7876L147.297 23.9399L145.862 22.3799L137.402 22.8267L136.113 24.3281L136.619 32.729ZM37.9834 27.0601L37.9175 26.5474L41.0669 26.042L40.6494 23.2222L37.5586 23.6982L37.4414 22.7388L42.1216 22.6216L41.9971 26.4888L37.9834 27.0601ZM48.6914 31.3228L47.0068 33.4834L49.2334 35.1899L51.3867 32.3994L55.2612 33.9595L56.3672 31.3228L53.2178 30.063L55.708 26.877L54.873 24.6284L46.8018 23.0098L46.2598 25.771L52.0825 26.9429L50.5225 28.979L47.373 27.6899L46.2598 30.3267L48.6914 31.3228ZM144.302 25.2876L143.613 31.2275L139.35 31.2275L138.992 25.5586L144.302 25.2876ZM131.763 25.3169L131.067 31.2275L126.54 31.2275L125.698 25.8882L131.763 25.3169ZM66.5112 26.7012L62.7319 32.2236L65.0683 33.8423L68.8476 28.3198L66.5112 26.7012ZM75 27.7485L72.4804 29.1035L74.9707 33.6885L77.4609 32.3408L75 27.7485ZM41.8799 30.2681L38.4888 31.0518L38.3423 29.8799L41.9092 29.3672L41.8799 30.2681Z" fill="#FFFFFF"/>
  <path d="M36.2402 13.2026L35.0977 13.2612L35.2515 16.0811L36.7529 16.0225L37.1118 17.8169L38.5181 18.9888L51.3574 18.9595L52.771 17.6704L53.5181 10.4414L52.0532 8.91064L37.1704 9.48193L35.8521 11.1592L36.2402 13.2026ZM94.6801 13.4077L94.9218 16.2275L115.862 14.4331L115.649 11.6133L106.26 12.4189L102.898 9.35742L100.979 11.4595L102.393 12.7485L94.6801 13.4077ZM68.3716 12.4189L64.3213 12.7192L64.497 15.5684L76.3183 14.6675L76.1133 11.8477L71.6674 12.1772L69.6313 9.42334L67.3828 11.1006L68.3716 12.4189ZM79.021 12.1187L77.9077 13.5322L78.3618 34.377L81.2109 34.3184L80.9692 21.6035L82.7124 21.3325L84.1772 33.4468L86.997 33.1172L85.5029 20.9077L87.2973 20.6367L86.8506 17.8535L80.9106 18.7764L80.8227 14.5796L87.0263 13.0488L86.3672 10.3169L79.021 12.1187ZM127.412 10.4121L125.998 12.0308L127.2 20.3071L128.701 21.5083L142.559 20.4609L143.818 19.2305L144.661 11.9722L143.247 10.4121L127.412 10.4121ZM49.4678 12.5068L39.0601 13.0488L38.9136 12.2432L50.5225 11.7891L50.0977 16.1396L39.6606 16.1689L39.6021 15.8687L49.6216 15.3267L49.4678 12.5068ZM141.152 17.7583L129.836 18.5713L129.06 13.2319L141.687 13.2319L141.152 17.7583ZM72.5097 30.9272L72.063 26.2764L77.0727 26.3423L77.102 23.4932L71.8213 23.4272L71.6674 21.8086L76.9775 21.3325L76.7065 18.542L74.8828 18.6885L76.0766 16.1396L73.4985 14.9385L71.6382 18.9595L69.7192 19.1426L67.8589 15.7515L65.3979 17.0991L66.6284 19.377L64.768 19.5308L64.9804 22.3799L68.8476 22.0503L68.9721 23.3979L63.8672 23.3394L63.8672 26.1885L69.2065 26.2471L69.6313 30.5977L67.3828 33.1465L69.4775 34.9775L72.1508 32.0405L72.5097 30.9272ZM98.7597 22.9219L116.433 23.4565L116.521 20.6367L109.651 20.4316L113.013 17.7876L111.269 15.5977L105.872 19.8311L100.503 16.2275L98.9135 18.6006L101.279 20.1899L94.9218 19.9775L94.7973 22.7974L95.9399 22.8267L93.4789 34.4429L96.2109 35.0435L98.7597 22.9219ZM34.7681 24.1523L34.0503 24.2402L34.4971 27.0601L35.0977 26.9722L35.6982 31.6816L33.3618 32.187L33.9624 34.9775L41.792 33.1831L41.7334 35.4609L44.5532 35.5195L44.6411 32.5532L46.1719 32.187L45.5127 29.4624L44.729 29.6382L44.9707 22.5264L56.9678 22.1675L56.8799 19.377L33.0322 20.0068L33.1201 22.8633L34.5923 22.8267L34.7681 24.1523ZM123.962 32.8828L125.339 34.0181L132.297 34.0181L133.74 32.7876L134.758 23.9399L133.257 22.3799L123.962 23.2222L122.673 24.8408L123.962 32.8828ZM136.619 32.729L138.003 34.0181L144.836 34.0181L146.25 32.7876L147.297 23.9399L145.862 22.3799L137.402 22.8267L136.113 24.3281L136.619 32.729ZM37.9834 27.0601L37.9175 26.5474L41.0669 26.042L40.6494 23.2222L37.5586 23.6982L37.4414 22.7388L42.1216 22.6216L41.9971 26.4888L37.9834 27.0601ZM48.6914 31.3228L47.0068 33.4834L49.2334 35.1899L51.3867 32.3994L55.2612 33.9595L56.3672 31.3228L53.2178 30.063L55.708 26.877L54.873 24.6284L46.8018 23.0098L46.2598 25.771L52.0825 26.9429L50.5225 28.979L47.373 27.6899L46.2598 30.3267L48.6914 31.3228ZM144.302 25.2876L143.613 31.2275L139.35 31.2275L138.992 25.5586L144.302 25.2876ZM131.763 25.3169L131.067 31.2275L126.54 31.2275L125.698 25.8882L131.763 25.3169ZM66.5112 26.7012L62.7319 32.2236L65.0683 33.8423L68.8476 28.3198L66.5112 26.7012ZM75 27.7485L72.4804 29.1035L74.9707 33.6885L77.4609 32.3408L75 27.7485ZM41.8799 30.2681L38.4888 31.0518L38.3423 29.8799L41.9092 29.3672L41.8799 30.2681Z" fill="#FFFFFF"/>
  <defs/>
</svg>
