<svg width="77.000000" height="72.000000" viewBox="0 0 77 72" fill="none" xmlns="http://www.w3.org/2000/svg" xmlns:xlink="http://www.w3.org/1999/xlink">
  <desc>
    Created with Pixso.
  </desc>
  <path d="M25.1693 14.3264C33.4854 13.2255 43.5146 13.2255 51.8306 14.3264C59.3862 15.3285 65.2415 20.2844 66.358 25.6244C67.7151 32.0894 67.7151 39.9133 66.358 46.3784C65.2382 51.7184 59.3862 56.6744 51.8306 57.6764C43.5146 58.7773 33.4822 58.7773 25.1693 57.6764C17.6137 56.6744 11.7617 51.7184 10.642 46.3784C9.28485 39.9133 9.28485 32.0894 10.642 25.6244C11.7617 20.2844 17.6137 15.3285 25.1693 14.3264ZM52.7289 8.38647C43.8194 7.2074 33.1806 7.2074 24.271 8.38647C14.5979 9.66748 6.09583 16.1205 4.34723 24.4724C2.82971 31.6993 2.82971 40.3033 4.34723 47.5304C6.09583 55.8823 14.5979 62.3354 24.271 63.6163C33.1806 64.7954 43.8194 64.7954 52.7289 63.6163C62.4021 62.3354 70.9042 55.8823 72.6527 47.5304C74.1702 40.3033 74.1702 31.6993 72.6527 24.4724C70.9042 16.1205 62.4021 9.66748 52.7289 8.38647ZM33.864 21.5055C33.3808 21.204 32.819 21.0309 32.239 21.0045C31.6588 20.9781 31.0818 21.0996 30.5697 21.3558C30.0576 21.6121 29.6295 21.9935 29.3309 22.4595C29.0325 22.9253 28.8749 23.4584 28.8749 24.0015L28.8749 48.0013C28.8749 48.5447 29.0325 49.0775 29.3309 49.5433C29.6295 50.0093 30.0576 50.3909 30.5697 50.6471C31.0818 50.9033 31.6588 51.0248 32.239 50.9984C32.819 50.9719 33.3808 50.7988 33.864 50.4974L53.114 38.4974C53.5535 38.2235 53.9135 37.8524 54.1628 37.4167C54.412 36.9814 54.5423 36.4952 54.5423 36.0013C54.5423 35.5076 54.412 35.0212 54.1628 34.5859C53.9135 34.1506 53.5535 33.7793 53.114 33.5054L33.864 21.5055ZM45.5487 36.0013L35.2917 42.3973L35.2917 29.6084L45.5487 36.0013Z" fill="#FFFFFF"/>
  <defs/>
</svg>
